G75*
%MOIN*%
%OFA0B0*%
%FSLAX25Y25*%
%IPPOS*%
%LPD*%
%AMOC8*
5,1,8,0,0,1.08239X$1,22.5*
%
%ADD10C,0.00000*%
%ADD11C,0.00394*%
%ADD12C,0.00400*%
%ADD13C,0.00800*%
%ADD14C,0.00600*%
%ADD15R,0.10000X0.02000*%
%ADD16R,0.03000X0.07500*%
%ADD17C,0.01600*%
%ADD18C,0.00300*%
%ADD19R,0.03937X0.00787*%
%ADD20C,0.00500*%
D10*
X0001006Y0001006D02*
X0001006Y0152778D01*
X0170298Y0152778D01*
X0170298Y0001006D01*
X0001006Y0001006D01*
X0003762Y0005928D02*
X0003764Y0006016D01*
X0003770Y0006104D01*
X0003780Y0006192D01*
X0003794Y0006280D01*
X0003811Y0006366D01*
X0003833Y0006452D01*
X0003858Y0006536D01*
X0003888Y0006620D01*
X0003920Y0006702D01*
X0003957Y0006782D01*
X0003997Y0006861D01*
X0004041Y0006938D01*
X0004088Y0007013D01*
X0004138Y0007085D01*
X0004192Y0007156D01*
X0004248Y0007223D01*
X0004308Y0007289D01*
X0004370Y0007351D01*
X0004436Y0007411D01*
X0004503Y0007467D01*
X0004574Y0007521D01*
X0004646Y0007571D01*
X0004721Y0007618D01*
X0004798Y0007662D01*
X0004877Y0007702D01*
X0004957Y0007739D01*
X0005039Y0007771D01*
X0005123Y0007801D01*
X0005207Y0007826D01*
X0005293Y0007848D01*
X0005379Y0007865D01*
X0005467Y0007879D01*
X0005555Y0007889D01*
X0005643Y0007895D01*
X0005731Y0007897D01*
X0005819Y0007895D01*
X0005907Y0007889D01*
X0005995Y0007879D01*
X0006083Y0007865D01*
X0006169Y0007848D01*
X0006255Y0007826D01*
X0006339Y0007801D01*
X0006423Y0007771D01*
X0006505Y0007739D01*
X0006585Y0007702D01*
X0006664Y0007662D01*
X0006741Y0007618D01*
X0006816Y0007571D01*
X0006888Y0007521D01*
X0006959Y0007467D01*
X0007026Y0007411D01*
X0007092Y0007351D01*
X0007154Y0007289D01*
X0007214Y0007223D01*
X0007270Y0007156D01*
X0007324Y0007085D01*
X0007374Y0007013D01*
X0007421Y0006938D01*
X0007465Y0006861D01*
X0007505Y0006782D01*
X0007542Y0006702D01*
X0007574Y0006620D01*
X0007604Y0006536D01*
X0007629Y0006452D01*
X0007651Y0006366D01*
X0007668Y0006280D01*
X0007682Y0006192D01*
X0007692Y0006104D01*
X0007698Y0006016D01*
X0007700Y0005928D01*
X0007698Y0005840D01*
X0007692Y0005752D01*
X0007682Y0005664D01*
X0007668Y0005576D01*
X0007651Y0005490D01*
X0007629Y0005404D01*
X0007604Y0005320D01*
X0007574Y0005236D01*
X0007542Y0005154D01*
X0007505Y0005074D01*
X0007465Y0004995D01*
X0007421Y0004918D01*
X0007374Y0004843D01*
X0007324Y0004771D01*
X0007270Y0004700D01*
X0007214Y0004633D01*
X0007154Y0004567D01*
X0007092Y0004505D01*
X0007026Y0004445D01*
X0006959Y0004389D01*
X0006888Y0004335D01*
X0006816Y0004285D01*
X0006741Y0004238D01*
X0006664Y0004194D01*
X0006585Y0004154D01*
X0006505Y0004117D01*
X0006423Y0004085D01*
X0006339Y0004055D01*
X0006255Y0004030D01*
X0006169Y0004008D01*
X0006083Y0003991D01*
X0005995Y0003977D01*
X0005907Y0003967D01*
X0005819Y0003961D01*
X0005731Y0003959D01*
X0005643Y0003961D01*
X0005555Y0003967D01*
X0005467Y0003977D01*
X0005379Y0003991D01*
X0005293Y0004008D01*
X0005207Y0004030D01*
X0005123Y0004055D01*
X0005039Y0004085D01*
X0004957Y0004117D01*
X0004877Y0004154D01*
X0004798Y0004194D01*
X0004721Y0004238D01*
X0004646Y0004285D01*
X0004574Y0004335D01*
X0004503Y0004389D01*
X0004436Y0004445D01*
X0004370Y0004505D01*
X0004308Y0004567D01*
X0004248Y0004633D01*
X0004192Y0004700D01*
X0004138Y0004771D01*
X0004088Y0004843D01*
X0004041Y0004918D01*
X0003997Y0004995D01*
X0003957Y0005074D01*
X0003920Y0005154D01*
X0003888Y0005236D01*
X0003858Y0005320D01*
X0003833Y0005404D01*
X0003811Y0005490D01*
X0003794Y0005576D01*
X0003780Y0005664D01*
X0003770Y0005752D01*
X0003764Y0005840D01*
X0003762Y0005928D01*
X0115769Y0059273D02*
X0115771Y0059405D01*
X0115777Y0059538D01*
X0115787Y0059670D01*
X0115801Y0059802D01*
X0115818Y0059933D01*
X0115840Y0060064D01*
X0115866Y0060194D01*
X0115895Y0060323D01*
X0115929Y0060451D01*
X0115966Y0060578D01*
X0116007Y0060704D01*
X0116051Y0060829D01*
X0116100Y0060953D01*
X0116152Y0061074D01*
X0116208Y0061195D01*
X0116267Y0061313D01*
X0116330Y0061430D01*
X0116396Y0061545D01*
X0116466Y0061657D01*
X0116539Y0061768D01*
X0116615Y0061876D01*
X0116694Y0061982D01*
X0116777Y0062086D01*
X0116863Y0062187D01*
X0116951Y0062285D01*
X0117043Y0062381D01*
X0117137Y0062474D01*
X0117234Y0062564D01*
X0117334Y0062652D01*
X0117437Y0062736D01*
X0117541Y0062817D01*
X0117649Y0062895D01*
X0117758Y0062969D01*
X0117870Y0063041D01*
X0117984Y0063109D01*
X0118099Y0063173D01*
X0118217Y0063234D01*
X0118336Y0063292D01*
X0118457Y0063346D01*
X0118580Y0063396D01*
X0118704Y0063442D01*
X0118829Y0063485D01*
X0118956Y0063524D01*
X0119084Y0063560D01*
X0119212Y0063591D01*
X0119342Y0063619D01*
X0119472Y0063642D01*
X0119603Y0063662D01*
X0119735Y0063678D01*
X0119867Y0063690D01*
X0119999Y0063698D01*
X0120132Y0063702D01*
X0120264Y0063702D01*
X0120397Y0063698D01*
X0120529Y0063690D01*
X0120661Y0063678D01*
X0120793Y0063662D01*
X0120924Y0063642D01*
X0121054Y0063619D01*
X0121184Y0063591D01*
X0121312Y0063560D01*
X0121440Y0063524D01*
X0121567Y0063485D01*
X0121692Y0063442D01*
X0121816Y0063396D01*
X0121939Y0063346D01*
X0122060Y0063292D01*
X0122179Y0063234D01*
X0122297Y0063173D01*
X0122413Y0063109D01*
X0122526Y0063041D01*
X0122638Y0062969D01*
X0122747Y0062895D01*
X0122855Y0062817D01*
X0122959Y0062736D01*
X0123062Y0062652D01*
X0123162Y0062564D01*
X0123259Y0062474D01*
X0123353Y0062381D01*
X0123445Y0062285D01*
X0123533Y0062187D01*
X0123619Y0062086D01*
X0123702Y0061982D01*
X0123781Y0061876D01*
X0123857Y0061768D01*
X0123930Y0061657D01*
X0124000Y0061545D01*
X0124066Y0061430D01*
X0124129Y0061313D01*
X0124188Y0061195D01*
X0124244Y0061074D01*
X0124296Y0060953D01*
X0124345Y0060829D01*
X0124389Y0060704D01*
X0124430Y0060578D01*
X0124467Y0060451D01*
X0124501Y0060323D01*
X0124530Y0060194D01*
X0124556Y0060064D01*
X0124578Y0059933D01*
X0124595Y0059802D01*
X0124609Y0059670D01*
X0124619Y0059538D01*
X0124625Y0059405D01*
X0124627Y0059273D01*
X0124625Y0059141D01*
X0124619Y0059008D01*
X0124609Y0058876D01*
X0124595Y0058744D01*
X0124578Y0058613D01*
X0124556Y0058482D01*
X0124530Y0058352D01*
X0124501Y0058223D01*
X0124467Y0058095D01*
X0124430Y0057968D01*
X0124389Y0057842D01*
X0124345Y0057717D01*
X0124296Y0057593D01*
X0124244Y0057472D01*
X0124188Y0057351D01*
X0124129Y0057233D01*
X0124066Y0057116D01*
X0124000Y0057001D01*
X0123930Y0056889D01*
X0123857Y0056778D01*
X0123781Y0056670D01*
X0123702Y0056564D01*
X0123619Y0056460D01*
X0123533Y0056359D01*
X0123445Y0056261D01*
X0123353Y0056165D01*
X0123259Y0056072D01*
X0123162Y0055982D01*
X0123062Y0055894D01*
X0122959Y0055810D01*
X0122855Y0055729D01*
X0122747Y0055651D01*
X0122638Y0055577D01*
X0122526Y0055505D01*
X0122412Y0055437D01*
X0122297Y0055373D01*
X0122179Y0055312D01*
X0122060Y0055254D01*
X0121939Y0055200D01*
X0121816Y0055150D01*
X0121692Y0055104D01*
X0121567Y0055061D01*
X0121440Y0055022D01*
X0121312Y0054986D01*
X0121184Y0054955D01*
X0121054Y0054927D01*
X0120924Y0054904D01*
X0120793Y0054884D01*
X0120661Y0054868D01*
X0120529Y0054856D01*
X0120397Y0054848D01*
X0120264Y0054844D01*
X0120132Y0054844D01*
X0119999Y0054848D01*
X0119867Y0054856D01*
X0119735Y0054868D01*
X0119603Y0054884D01*
X0119472Y0054904D01*
X0119342Y0054927D01*
X0119212Y0054955D01*
X0119084Y0054986D01*
X0118956Y0055022D01*
X0118829Y0055061D01*
X0118704Y0055104D01*
X0118580Y0055150D01*
X0118457Y0055200D01*
X0118336Y0055254D01*
X0118217Y0055312D01*
X0118099Y0055373D01*
X0117983Y0055437D01*
X0117870Y0055505D01*
X0117758Y0055577D01*
X0117649Y0055651D01*
X0117541Y0055729D01*
X0117437Y0055810D01*
X0117334Y0055894D01*
X0117234Y0055982D01*
X0117137Y0056072D01*
X0117043Y0056165D01*
X0116951Y0056261D01*
X0116863Y0056359D01*
X0116777Y0056460D01*
X0116694Y0056564D01*
X0116615Y0056670D01*
X0116539Y0056778D01*
X0116466Y0056889D01*
X0116396Y0057001D01*
X0116330Y0057116D01*
X0116267Y0057233D01*
X0116208Y0057351D01*
X0116152Y0057472D01*
X0116100Y0057593D01*
X0116051Y0057717D01*
X0116007Y0057842D01*
X0115966Y0057968D01*
X0115929Y0058095D01*
X0115895Y0058223D01*
X0115866Y0058352D01*
X0115840Y0058482D01*
X0115818Y0058613D01*
X0115801Y0058744D01*
X0115787Y0058876D01*
X0115777Y0059008D01*
X0115771Y0059141D01*
X0115769Y0059273D01*
X0163604Y0005928D02*
X0163606Y0006016D01*
X0163612Y0006104D01*
X0163622Y0006192D01*
X0163636Y0006280D01*
X0163653Y0006366D01*
X0163675Y0006452D01*
X0163700Y0006536D01*
X0163730Y0006620D01*
X0163762Y0006702D01*
X0163799Y0006782D01*
X0163839Y0006861D01*
X0163883Y0006938D01*
X0163930Y0007013D01*
X0163980Y0007085D01*
X0164034Y0007156D01*
X0164090Y0007223D01*
X0164150Y0007289D01*
X0164212Y0007351D01*
X0164278Y0007411D01*
X0164345Y0007467D01*
X0164416Y0007521D01*
X0164488Y0007571D01*
X0164563Y0007618D01*
X0164640Y0007662D01*
X0164719Y0007702D01*
X0164799Y0007739D01*
X0164881Y0007771D01*
X0164965Y0007801D01*
X0165049Y0007826D01*
X0165135Y0007848D01*
X0165221Y0007865D01*
X0165309Y0007879D01*
X0165397Y0007889D01*
X0165485Y0007895D01*
X0165573Y0007897D01*
X0165661Y0007895D01*
X0165749Y0007889D01*
X0165837Y0007879D01*
X0165925Y0007865D01*
X0166011Y0007848D01*
X0166097Y0007826D01*
X0166181Y0007801D01*
X0166265Y0007771D01*
X0166347Y0007739D01*
X0166427Y0007702D01*
X0166506Y0007662D01*
X0166583Y0007618D01*
X0166658Y0007571D01*
X0166730Y0007521D01*
X0166801Y0007467D01*
X0166868Y0007411D01*
X0166934Y0007351D01*
X0166996Y0007289D01*
X0167056Y0007223D01*
X0167112Y0007156D01*
X0167166Y0007085D01*
X0167216Y0007013D01*
X0167263Y0006938D01*
X0167307Y0006861D01*
X0167347Y0006782D01*
X0167384Y0006702D01*
X0167416Y0006620D01*
X0167446Y0006536D01*
X0167471Y0006452D01*
X0167493Y0006366D01*
X0167510Y0006280D01*
X0167524Y0006192D01*
X0167534Y0006104D01*
X0167540Y0006016D01*
X0167542Y0005928D01*
X0167540Y0005840D01*
X0167534Y0005752D01*
X0167524Y0005664D01*
X0167510Y0005576D01*
X0167493Y0005490D01*
X0167471Y0005404D01*
X0167446Y0005320D01*
X0167416Y0005236D01*
X0167384Y0005154D01*
X0167347Y0005074D01*
X0167307Y0004995D01*
X0167263Y0004918D01*
X0167216Y0004843D01*
X0167166Y0004771D01*
X0167112Y0004700D01*
X0167056Y0004633D01*
X0166996Y0004567D01*
X0166934Y0004505D01*
X0166868Y0004445D01*
X0166801Y0004389D01*
X0166730Y0004335D01*
X0166658Y0004285D01*
X0166583Y0004238D01*
X0166506Y0004194D01*
X0166427Y0004154D01*
X0166347Y0004117D01*
X0166265Y0004085D01*
X0166181Y0004055D01*
X0166097Y0004030D01*
X0166011Y0004008D01*
X0165925Y0003991D01*
X0165837Y0003977D01*
X0165749Y0003967D01*
X0165661Y0003961D01*
X0165573Y0003959D01*
X0165485Y0003961D01*
X0165397Y0003967D01*
X0165309Y0003977D01*
X0165221Y0003991D01*
X0165135Y0004008D01*
X0165049Y0004030D01*
X0164965Y0004055D01*
X0164881Y0004085D01*
X0164799Y0004117D01*
X0164719Y0004154D01*
X0164640Y0004194D01*
X0164563Y0004238D01*
X0164488Y0004285D01*
X0164416Y0004335D01*
X0164345Y0004389D01*
X0164278Y0004445D01*
X0164212Y0004505D01*
X0164150Y0004567D01*
X0164090Y0004633D01*
X0164034Y0004700D01*
X0163980Y0004771D01*
X0163930Y0004843D01*
X0163883Y0004918D01*
X0163839Y0004995D01*
X0163799Y0005074D01*
X0163762Y0005154D01*
X0163730Y0005236D01*
X0163700Y0005320D01*
X0163675Y0005404D01*
X0163653Y0005490D01*
X0163636Y0005576D01*
X0163622Y0005664D01*
X0163612Y0005752D01*
X0163606Y0005840D01*
X0163604Y0005928D01*
X0163604Y0147857D02*
X0163606Y0147945D01*
X0163612Y0148033D01*
X0163622Y0148121D01*
X0163636Y0148209D01*
X0163653Y0148295D01*
X0163675Y0148381D01*
X0163700Y0148465D01*
X0163730Y0148549D01*
X0163762Y0148631D01*
X0163799Y0148711D01*
X0163839Y0148790D01*
X0163883Y0148867D01*
X0163930Y0148942D01*
X0163980Y0149014D01*
X0164034Y0149085D01*
X0164090Y0149152D01*
X0164150Y0149218D01*
X0164212Y0149280D01*
X0164278Y0149340D01*
X0164345Y0149396D01*
X0164416Y0149450D01*
X0164488Y0149500D01*
X0164563Y0149547D01*
X0164640Y0149591D01*
X0164719Y0149631D01*
X0164799Y0149668D01*
X0164881Y0149700D01*
X0164965Y0149730D01*
X0165049Y0149755D01*
X0165135Y0149777D01*
X0165221Y0149794D01*
X0165309Y0149808D01*
X0165397Y0149818D01*
X0165485Y0149824D01*
X0165573Y0149826D01*
X0165661Y0149824D01*
X0165749Y0149818D01*
X0165837Y0149808D01*
X0165925Y0149794D01*
X0166011Y0149777D01*
X0166097Y0149755D01*
X0166181Y0149730D01*
X0166265Y0149700D01*
X0166347Y0149668D01*
X0166427Y0149631D01*
X0166506Y0149591D01*
X0166583Y0149547D01*
X0166658Y0149500D01*
X0166730Y0149450D01*
X0166801Y0149396D01*
X0166868Y0149340D01*
X0166934Y0149280D01*
X0166996Y0149218D01*
X0167056Y0149152D01*
X0167112Y0149085D01*
X0167166Y0149014D01*
X0167216Y0148942D01*
X0167263Y0148867D01*
X0167307Y0148790D01*
X0167347Y0148711D01*
X0167384Y0148631D01*
X0167416Y0148549D01*
X0167446Y0148465D01*
X0167471Y0148381D01*
X0167493Y0148295D01*
X0167510Y0148209D01*
X0167524Y0148121D01*
X0167534Y0148033D01*
X0167540Y0147945D01*
X0167542Y0147857D01*
X0167540Y0147769D01*
X0167534Y0147681D01*
X0167524Y0147593D01*
X0167510Y0147505D01*
X0167493Y0147419D01*
X0167471Y0147333D01*
X0167446Y0147249D01*
X0167416Y0147165D01*
X0167384Y0147083D01*
X0167347Y0147003D01*
X0167307Y0146924D01*
X0167263Y0146847D01*
X0167216Y0146772D01*
X0167166Y0146700D01*
X0167112Y0146629D01*
X0167056Y0146562D01*
X0166996Y0146496D01*
X0166934Y0146434D01*
X0166868Y0146374D01*
X0166801Y0146318D01*
X0166730Y0146264D01*
X0166658Y0146214D01*
X0166583Y0146167D01*
X0166506Y0146123D01*
X0166427Y0146083D01*
X0166347Y0146046D01*
X0166265Y0146014D01*
X0166181Y0145984D01*
X0166097Y0145959D01*
X0166011Y0145937D01*
X0165925Y0145920D01*
X0165837Y0145906D01*
X0165749Y0145896D01*
X0165661Y0145890D01*
X0165573Y0145888D01*
X0165485Y0145890D01*
X0165397Y0145896D01*
X0165309Y0145906D01*
X0165221Y0145920D01*
X0165135Y0145937D01*
X0165049Y0145959D01*
X0164965Y0145984D01*
X0164881Y0146014D01*
X0164799Y0146046D01*
X0164719Y0146083D01*
X0164640Y0146123D01*
X0164563Y0146167D01*
X0164488Y0146214D01*
X0164416Y0146264D01*
X0164345Y0146318D01*
X0164278Y0146374D01*
X0164212Y0146434D01*
X0164150Y0146496D01*
X0164090Y0146562D01*
X0164034Y0146629D01*
X0163980Y0146700D01*
X0163930Y0146772D01*
X0163883Y0146847D01*
X0163839Y0146924D01*
X0163799Y0147003D01*
X0163762Y0147083D01*
X0163730Y0147165D01*
X0163700Y0147249D01*
X0163675Y0147333D01*
X0163653Y0147419D01*
X0163636Y0147505D01*
X0163622Y0147593D01*
X0163612Y0147681D01*
X0163606Y0147769D01*
X0163604Y0147857D01*
X0003762Y0147857D02*
X0003764Y0147945D01*
X0003770Y0148033D01*
X0003780Y0148121D01*
X0003794Y0148209D01*
X0003811Y0148295D01*
X0003833Y0148381D01*
X0003858Y0148465D01*
X0003888Y0148549D01*
X0003920Y0148631D01*
X0003957Y0148711D01*
X0003997Y0148790D01*
X0004041Y0148867D01*
X0004088Y0148942D01*
X0004138Y0149014D01*
X0004192Y0149085D01*
X0004248Y0149152D01*
X0004308Y0149218D01*
X0004370Y0149280D01*
X0004436Y0149340D01*
X0004503Y0149396D01*
X0004574Y0149450D01*
X0004646Y0149500D01*
X0004721Y0149547D01*
X0004798Y0149591D01*
X0004877Y0149631D01*
X0004957Y0149668D01*
X0005039Y0149700D01*
X0005123Y0149730D01*
X0005207Y0149755D01*
X0005293Y0149777D01*
X0005379Y0149794D01*
X0005467Y0149808D01*
X0005555Y0149818D01*
X0005643Y0149824D01*
X0005731Y0149826D01*
X0005819Y0149824D01*
X0005907Y0149818D01*
X0005995Y0149808D01*
X0006083Y0149794D01*
X0006169Y0149777D01*
X0006255Y0149755D01*
X0006339Y0149730D01*
X0006423Y0149700D01*
X0006505Y0149668D01*
X0006585Y0149631D01*
X0006664Y0149591D01*
X0006741Y0149547D01*
X0006816Y0149500D01*
X0006888Y0149450D01*
X0006959Y0149396D01*
X0007026Y0149340D01*
X0007092Y0149280D01*
X0007154Y0149218D01*
X0007214Y0149152D01*
X0007270Y0149085D01*
X0007324Y0149014D01*
X0007374Y0148942D01*
X0007421Y0148867D01*
X0007465Y0148790D01*
X0007505Y0148711D01*
X0007542Y0148631D01*
X0007574Y0148549D01*
X0007604Y0148465D01*
X0007629Y0148381D01*
X0007651Y0148295D01*
X0007668Y0148209D01*
X0007682Y0148121D01*
X0007692Y0148033D01*
X0007698Y0147945D01*
X0007700Y0147857D01*
X0007698Y0147769D01*
X0007692Y0147681D01*
X0007682Y0147593D01*
X0007668Y0147505D01*
X0007651Y0147419D01*
X0007629Y0147333D01*
X0007604Y0147249D01*
X0007574Y0147165D01*
X0007542Y0147083D01*
X0007505Y0147003D01*
X0007465Y0146924D01*
X0007421Y0146847D01*
X0007374Y0146772D01*
X0007324Y0146700D01*
X0007270Y0146629D01*
X0007214Y0146562D01*
X0007154Y0146496D01*
X0007092Y0146434D01*
X0007026Y0146374D01*
X0006959Y0146318D01*
X0006888Y0146264D01*
X0006816Y0146214D01*
X0006741Y0146167D01*
X0006664Y0146123D01*
X0006585Y0146083D01*
X0006505Y0146046D01*
X0006423Y0146014D01*
X0006339Y0145984D01*
X0006255Y0145959D01*
X0006169Y0145937D01*
X0006083Y0145920D01*
X0005995Y0145906D01*
X0005907Y0145896D01*
X0005819Y0145890D01*
X0005731Y0145888D01*
X0005643Y0145890D01*
X0005555Y0145896D01*
X0005467Y0145906D01*
X0005379Y0145920D01*
X0005293Y0145937D01*
X0005207Y0145959D01*
X0005123Y0145984D01*
X0005039Y0146014D01*
X0004957Y0146046D01*
X0004877Y0146083D01*
X0004798Y0146123D01*
X0004721Y0146167D01*
X0004646Y0146214D01*
X0004574Y0146264D01*
X0004503Y0146318D01*
X0004436Y0146374D01*
X0004370Y0146434D01*
X0004308Y0146496D01*
X0004248Y0146562D01*
X0004192Y0146629D01*
X0004138Y0146700D01*
X0004088Y0146772D01*
X0004041Y0146847D01*
X0003997Y0146924D01*
X0003957Y0147003D01*
X0003920Y0147083D01*
X0003888Y0147165D01*
X0003858Y0147249D01*
X0003833Y0147333D01*
X0003811Y0147419D01*
X0003794Y0147505D01*
X0003780Y0147593D01*
X0003770Y0147681D01*
X0003764Y0147769D01*
X0003762Y0147857D01*
D11*
X0066412Y0149872D02*
X0066412Y0174676D01*
X0137278Y0174676D01*
X0137278Y0149872D01*
X0066412Y0149872D01*
X0066412Y0076250D02*
X0066412Y0074282D01*
X0074286Y0074282D01*
X0126185Y0019106D02*
X0126185Y0008476D01*
X0136421Y0008476D01*
X0136421Y0019106D01*
X0126185Y0019106D01*
D12*
X0078650Y0176194D02*
X0076095Y0176194D01*
X0077373Y0176194D02*
X0077373Y0180794D01*
X0076095Y0179772D01*
X0073812Y0178111D02*
X0073173Y0178494D01*
X0072534Y0178878D01*
X0072150Y0176961D02*
X0072225Y0176918D01*
X0072301Y0176879D01*
X0072379Y0176842D01*
X0072458Y0176810D01*
X0072539Y0176780D01*
X0072621Y0176754D01*
X0072704Y0176732D01*
X0072788Y0176713D01*
X0072872Y0176697D01*
X0072957Y0176686D01*
X0073043Y0176678D01*
X0073128Y0176673D01*
X0073214Y0176672D01*
X0073300Y0176675D01*
X0073386Y0176681D01*
X0073471Y0176691D01*
X0073556Y0176705D01*
X0073173Y0176194D02*
X0073173Y0180794D01*
X0072790Y0180283D02*
X0072737Y0180271D01*
X0072685Y0180256D01*
X0072634Y0180236D01*
X0072585Y0180214D01*
X0072537Y0180188D01*
X0072491Y0180158D01*
X0072448Y0180126D01*
X0072407Y0180090D01*
X0072368Y0180052D01*
X0072333Y0180011D01*
X0072300Y0179967D01*
X0072271Y0179922D01*
X0072245Y0179874D01*
X0072222Y0179824D01*
X0072203Y0179774D01*
X0072188Y0179722D01*
X0072176Y0179668D01*
X0072169Y0179615D01*
X0072165Y0179561D01*
X0072164Y0179506D01*
X0072168Y0179452D01*
X0072176Y0179398D01*
X0072187Y0179345D01*
X0072202Y0179293D01*
X0072221Y0179242D01*
X0072244Y0179193D01*
X0072269Y0179145D01*
X0072299Y0179099D01*
X0072331Y0179056D01*
X0072366Y0179014D01*
X0072405Y0178976D01*
X0072446Y0178940D01*
X0072489Y0178907D01*
X0072534Y0178878D01*
X0072789Y0180284D02*
X0072874Y0180298D01*
X0072959Y0180308D01*
X0073045Y0180314D01*
X0073131Y0180317D01*
X0073217Y0180316D01*
X0073302Y0180311D01*
X0073388Y0180303D01*
X0073473Y0180292D01*
X0073557Y0180276D01*
X0073641Y0180257D01*
X0073724Y0180235D01*
X0073806Y0180209D01*
X0073887Y0180179D01*
X0073966Y0180147D01*
X0074044Y0180110D01*
X0074120Y0180071D01*
X0074195Y0180028D01*
X0073812Y0178111D02*
X0073857Y0178082D01*
X0073900Y0178049D01*
X0073941Y0178013D01*
X0073980Y0177975D01*
X0074015Y0177933D01*
X0074047Y0177890D01*
X0074077Y0177844D01*
X0074102Y0177796D01*
X0074125Y0177747D01*
X0074144Y0177696D01*
X0074159Y0177644D01*
X0074170Y0177591D01*
X0074178Y0177537D01*
X0074182Y0177483D01*
X0074181Y0177428D01*
X0074177Y0177374D01*
X0074170Y0177321D01*
X0074158Y0177267D01*
X0074143Y0177215D01*
X0074124Y0177165D01*
X0074101Y0177115D01*
X0074075Y0177067D01*
X0074046Y0177022D01*
X0074013Y0176978D01*
X0073978Y0176937D01*
X0073939Y0176899D01*
X0073898Y0176863D01*
X0073855Y0176831D01*
X0073809Y0176801D01*
X0073761Y0176775D01*
X0073712Y0176753D01*
X0073661Y0176733D01*
X0073609Y0176718D01*
X0073556Y0176706D01*
X0070100Y0177472D02*
X0070100Y0180794D01*
X0067545Y0180794D02*
X0067545Y0177472D01*
X0067547Y0177402D01*
X0067553Y0177331D01*
X0067562Y0177262D01*
X0067576Y0177193D01*
X0067593Y0177124D01*
X0067614Y0177057D01*
X0067639Y0176991D01*
X0067667Y0176927D01*
X0067699Y0176864D01*
X0067734Y0176803D01*
X0067773Y0176744D01*
X0067814Y0176687D01*
X0067859Y0176633D01*
X0067907Y0176581D01*
X0067957Y0176532D01*
X0068011Y0176485D01*
X0068066Y0176442D01*
X0068124Y0176402D01*
X0068184Y0176365D01*
X0068246Y0176332D01*
X0068310Y0176302D01*
X0068375Y0176275D01*
X0068441Y0176252D01*
X0068509Y0176233D01*
X0068578Y0176218D01*
X0068647Y0176206D01*
X0068717Y0176198D01*
X0068788Y0176194D01*
X0068858Y0176194D01*
X0068929Y0176198D01*
X0068999Y0176206D01*
X0069068Y0176218D01*
X0069137Y0176233D01*
X0069205Y0176252D01*
X0069271Y0176275D01*
X0069336Y0176302D01*
X0069400Y0176332D01*
X0069462Y0176365D01*
X0069522Y0176402D01*
X0069580Y0176442D01*
X0069635Y0176485D01*
X0069689Y0176532D01*
X0069739Y0176581D01*
X0069787Y0176633D01*
X0069832Y0176687D01*
X0069873Y0176744D01*
X0069912Y0176803D01*
X0069947Y0176864D01*
X0069979Y0176927D01*
X0070007Y0176991D01*
X0070032Y0177057D01*
X0070053Y0177124D01*
X0070070Y0177193D01*
X0070084Y0177262D01*
X0070093Y0177331D01*
X0070099Y0177402D01*
X0070101Y0177472D01*
D13*
X0032361Y0096666D02*
X0027361Y0096666D01*
X0027361Y0085166D01*
X0032361Y0085166D01*
X0032361Y0096666D01*
X0039711Y0083239D02*
X0046010Y0083239D01*
X0046994Y0078317D02*
X0046994Y0075168D01*
X0046010Y0070246D02*
X0039711Y0070246D01*
X0041567Y0067827D02*
X0036398Y0067827D01*
X0041567Y0067827D02*
X0041567Y0064052D01*
X0036367Y0062173D02*
X0036367Y0060367D01*
X0041567Y0058433D02*
X0041567Y0054658D01*
X0036398Y0054658D01*
X0040168Y0052935D02*
X0040168Y0049786D01*
X0040168Y0052935D02*
X0041546Y0052935D01*
X0047611Y0059136D02*
X0047611Y0064136D01*
X0059111Y0064136D01*
X0059111Y0059136D01*
X0047611Y0059136D01*
X0052176Y0052935D02*
X0053554Y0052935D01*
X0053554Y0049786D01*
X0053554Y0042699D02*
X0053554Y0039550D01*
X0052176Y0039550D01*
X0057361Y0035243D02*
X0059361Y0035243D01*
X0049429Y0030327D02*
X0044261Y0030327D01*
X0044261Y0026552D01*
X0049461Y0024618D02*
X0049461Y0022812D01*
X0044261Y0020933D02*
X0044261Y0017158D01*
X0049429Y0017158D01*
X0049611Y0014743D02*
X0049611Y0009743D01*
X0038111Y0009743D01*
X0038111Y0014743D01*
X0049611Y0014743D01*
X0054861Y0009993D02*
X0054861Y0021493D01*
X0059861Y0021493D01*
X0059861Y0009993D01*
X0054861Y0009993D01*
X0038861Y0021993D02*
X0033861Y0021993D01*
X0033861Y0033493D01*
X0038861Y0033493D01*
X0038861Y0021993D01*
X0033117Y0020180D02*
X0033117Y0012306D01*
X0031935Y0014865D02*
X0028786Y0014865D01*
X0030361Y0017227D01*
X0031935Y0014865D01*
X0031148Y0015455D02*
X0029573Y0015455D01*
X0030361Y0016636D01*
X0031148Y0015455D01*
X0030666Y0016178D02*
X0030055Y0016178D01*
X0027605Y0012306D02*
X0027605Y0020180D01*
X0026861Y0031493D02*
X0031861Y0031493D01*
X0031861Y0042993D01*
X0026861Y0042993D01*
X0026861Y0031493D01*
X0017424Y0043152D02*
X0014924Y0040652D01*
X0009924Y0040652D01*
X0007424Y0043152D01*
X0007424Y0048152D01*
X0009924Y0050652D01*
X0007424Y0053152D01*
X0007424Y0058152D01*
X0009924Y0060652D01*
X0007424Y0063152D01*
X0007424Y0068152D01*
X0009924Y0070652D01*
X0007424Y0073152D01*
X0007424Y0078152D01*
X0009924Y0080652D01*
X0007424Y0083152D01*
X0007424Y0088152D01*
X0009924Y0090652D01*
X0014924Y0090652D01*
X0017424Y0088152D01*
X0017424Y0083152D01*
X0014924Y0080652D01*
X0017424Y0078152D01*
X0017424Y0073152D01*
X0014924Y0070652D01*
X0017424Y0068152D01*
X0017424Y0063152D01*
X0014924Y0060652D01*
X0017424Y0058152D01*
X0017424Y0053152D01*
X0014924Y0050652D01*
X0017424Y0048152D01*
X0017424Y0043152D01*
X0026754Y0045493D02*
X0026754Y0056993D01*
X0031754Y0056993D01*
X0031754Y0045493D01*
X0026754Y0045493D01*
X0040168Y0042699D02*
X0040168Y0039550D01*
X0041546Y0039550D01*
X0053861Y0070993D02*
X0053861Y0082493D01*
X0058861Y0082493D01*
X0058861Y0070993D01*
X0053861Y0070993D01*
X0144235Y0058900D02*
X0144235Y0053900D01*
X0146735Y0051400D01*
X0144235Y0048900D01*
X0144235Y0043900D01*
X0146735Y0041400D01*
X0144235Y0038900D01*
X0144235Y0033900D01*
X0146735Y0031400D01*
X0144235Y0028900D01*
X0144235Y0023900D01*
X0146735Y0021400D01*
X0151735Y0021400D01*
X0154235Y0023900D01*
X0154235Y0028900D01*
X0151735Y0031400D01*
X0154235Y0033900D01*
X0154235Y0038900D01*
X0151735Y0041400D01*
X0154235Y0043900D01*
X0154235Y0048900D01*
X0151735Y0051400D01*
X0154235Y0053900D01*
X0154235Y0058900D01*
X0151735Y0061400D01*
X0146735Y0061400D01*
X0144235Y0058900D01*
X0153821Y0066282D02*
X0151321Y0068782D01*
X0151321Y0073782D01*
X0153821Y0076282D01*
X0151321Y0078782D01*
X0151321Y0083782D01*
X0153821Y0086282D01*
X0151321Y0088782D01*
X0151321Y0093782D01*
X0153821Y0096282D01*
X0151321Y0098782D01*
X0151321Y0103782D01*
X0153821Y0106282D01*
X0151321Y0108782D01*
X0151321Y0113782D01*
X0153821Y0116282D01*
X0151321Y0118782D01*
X0151321Y0123782D01*
X0153821Y0126282D01*
X0151321Y0128782D01*
X0151321Y0133782D01*
X0153821Y0136282D01*
X0151321Y0138782D01*
X0151321Y0143782D01*
X0153821Y0146282D01*
X0158821Y0146282D01*
X0161321Y0143782D01*
X0161321Y0138782D01*
X0158821Y0136282D01*
X0161321Y0133782D01*
X0161321Y0128782D01*
X0158821Y0126282D01*
X0161321Y0123782D01*
X0161321Y0118782D01*
X0158821Y0116282D01*
X0161321Y0113782D01*
X0161321Y0108782D01*
X0158821Y0106282D01*
X0161321Y0103782D01*
X0161321Y0098782D01*
X0158821Y0096282D01*
X0161321Y0093782D01*
X0161321Y0088782D01*
X0158821Y0086282D01*
X0161321Y0083782D01*
X0161321Y0078782D01*
X0158821Y0076282D01*
X0161321Y0073782D01*
X0161321Y0068782D01*
X0158821Y0066282D01*
X0153821Y0066282D01*
D14*
X0094303Y0020591D02*
X0094303Y0008991D01*
X0087903Y0008991D01*
X0087903Y0020591D01*
X0094303Y0020591D01*
X0083303Y0032091D02*
X0073303Y0032091D01*
X0073303Y0048091D01*
X0083303Y0048091D01*
X0083303Y0032091D01*
X0078303Y0037591D02*
X0078303Y0040091D01*
X0080803Y0040091D01*
X0078303Y0040091D02*
X0080803Y0044091D01*
X0075803Y0044091D01*
X0078303Y0040091D01*
X0075803Y0040091D01*
X0078303Y0040091D02*
X0078303Y0046091D01*
D15*
X0078303Y0034591D03*
D16*
X0078303Y0028341D03*
X0078303Y0051841D03*
D17*
X0052569Y0055101D02*
X0052571Y0055140D01*
X0052577Y0055179D01*
X0052587Y0055217D01*
X0052600Y0055254D01*
X0052617Y0055289D01*
X0052637Y0055323D01*
X0052661Y0055354D01*
X0052688Y0055383D01*
X0052717Y0055409D01*
X0052749Y0055432D01*
X0052783Y0055452D01*
X0052819Y0055468D01*
X0052856Y0055480D01*
X0052895Y0055489D01*
X0052934Y0055494D01*
X0052973Y0055495D01*
X0053012Y0055492D01*
X0053051Y0055485D01*
X0053088Y0055474D01*
X0053125Y0055460D01*
X0053160Y0055442D01*
X0053193Y0055421D01*
X0053224Y0055396D01*
X0053252Y0055369D01*
X0053277Y0055339D01*
X0053299Y0055306D01*
X0053318Y0055272D01*
X0053333Y0055236D01*
X0053345Y0055198D01*
X0053353Y0055160D01*
X0053357Y0055121D01*
X0053357Y0055081D01*
X0053353Y0055042D01*
X0053345Y0055004D01*
X0053333Y0054966D01*
X0053318Y0054930D01*
X0053299Y0054896D01*
X0053277Y0054863D01*
X0053252Y0054833D01*
X0053224Y0054806D01*
X0053193Y0054781D01*
X0053160Y0054760D01*
X0053125Y0054742D01*
X0053088Y0054728D01*
X0053051Y0054717D01*
X0053012Y0054710D01*
X0052973Y0054707D01*
X0052934Y0054708D01*
X0052895Y0054713D01*
X0052856Y0054722D01*
X0052819Y0054734D01*
X0052783Y0054750D01*
X0052749Y0054770D01*
X0052717Y0054793D01*
X0052688Y0054819D01*
X0052661Y0054848D01*
X0052637Y0054879D01*
X0052617Y0054913D01*
X0052600Y0054948D01*
X0052587Y0054985D01*
X0052577Y0055023D01*
X0052571Y0055062D01*
X0052569Y0055101D01*
D18*
X0059465Y0056944D02*
X0059465Y0058244D01*
X0059826Y0058244D01*
X0059864Y0058242D01*
X0059901Y0058236D01*
X0059938Y0058226D01*
X0059973Y0058213D01*
X0060007Y0058196D01*
X0060038Y0058175D01*
X0060068Y0058151D01*
X0060094Y0058125D01*
X0060118Y0058095D01*
X0060139Y0058064D01*
X0060156Y0058030D01*
X0060169Y0057995D01*
X0060179Y0057958D01*
X0060185Y0057921D01*
X0060187Y0057883D01*
X0060185Y0057845D01*
X0060179Y0057808D01*
X0060169Y0057771D01*
X0060156Y0057736D01*
X0060139Y0057703D01*
X0060118Y0057671D01*
X0060094Y0057641D01*
X0060068Y0057615D01*
X0060038Y0057591D01*
X0060007Y0057570D01*
X0059973Y0057553D01*
X0059938Y0057540D01*
X0059901Y0057530D01*
X0059864Y0057524D01*
X0059826Y0057522D01*
X0059826Y0057521D02*
X0059465Y0057521D01*
X0059899Y0057521D02*
X0060188Y0056944D01*
X0060890Y0056944D02*
X0061612Y0056944D01*
X0061251Y0056944D02*
X0061251Y0058244D01*
X0060890Y0057955D01*
X0062330Y0057666D02*
X0062330Y0057305D01*
X0062330Y0057666D02*
X0062763Y0057666D01*
X0062330Y0057666D02*
X0062332Y0057714D01*
X0062338Y0057761D01*
X0062348Y0057808D01*
X0062361Y0057854D01*
X0062379Y0057898D01*
X0062400Y0057941D01*
X0062424Y0057982D01*
X0062452Y0058021D01*
X0062483Y0058057D01*
X0062517Y0058091D01*
X0062553Y0058122D01*
X0062592Y0058150D01*
X0062633Y0058174D01*
X0062676Y0058195D01*
X0062720Y0058213D01*
X0062766Y0058226D01*
X0062813Y0058236D01*
X0062860Y0058242D01*
X0062908Y0058244D01*
X0063052Y0057377D02*
X0063052Y0057305D01*
X0063052Y0057377D02*
X0063050Y0057409D01*
X0063045Y0057441D01*
X0063036Y0057472D01*
X0063023Y0057502D01*
X0063008Y0057531D01*
X0062989Y0057557D01*
X0062967Y0057581D01*
X0062943Y0057603D01*
X0062917Y0057622D01*
X0062888Y0057637D01*
X0062858Y0057650D01*
X0062827Y0057659D01*
X0062795Y0057664D01*
X0062763Y0057666D01*
X0063052Y0057305D02*
X0063050Y0057267D01*
X0063044Y0057230D01*
X0063034Y0057193D01*
X0063021Y0057158D01*
X0063004Y0057125D01*
X0062983Y0057093D01*
X0062959Y0057063D01*
X0062933Y0057037D01*
X0062903Y0057013D01*
X0062872Y0056992D01*
X0062838Y0056975D01*
X0062803Y0056962D01*
X0062766Y0056952D01*
X0062729Y0056946D01*
X0062691Y0056944D01*
X0062653Y0056946D01*
X0062616Y0056952D01*
X0062579Y0056962D01*
X0062544Y0056975D01*
X0062511Y0056992D01*
X0062479Y0057013D01*
X0062449Y0057037D01*
X0062423Y0057063D01*
X0062399Y0057093D01*
X0062378Y0057125D01*
X0062361Y0057158D01*
X0062348Y0057193D01*
X0062338Y0057230D01*
X0062332Y0057267D01*
X0062330Y0057305D01*
X0060648Y0035768D02*
X0061948Y0035407D01*
X0061948Y0034416D02*
X0061948Y0034127D01*
X0061949Y0034127D02*
X0061947Y0034095D01*
X0061942Y0034063D01*
X0061933Y0034032D01*
X0061920Y0034002D01*
X0061905Y0033973D01*
X0061886Y0033947D01*
X0061864Y0033923D01*
X0061840Y0033901D01*
X0061814Y0033882D01*
X0061785Y0033867D01*
X0061755Y0033854D01*
X0061724Y0033845D01*
X0061692Y0033840D01*
X0061660Y0033838D01*
X0061660Y0033839D02*
X0060937Y0033839D01*
X0060937Y0033838D02*
X0060905Y0033840D01*
X0060873Y0033845D01*
X0060842Y0033854D01*
X0060812Y0033867D01*
X0060783Y0033882D01*
X0060757Y0033901D01*
X0060733Y0033923D01*
X0060711Y0033947D01*
X0060692Y0033973D01*
X0060677Y0034002D01*
X0060664Y0034032D01*
X0060655Y0034063D01*
X0060650Y0034095D01*
X0060648Y0034127D01*
X0060648Y0034416D01*
X0060648Y0035045D02*
X0060648Y0035768D01*
X0060648Y0035045D02*
X0060793Y0035045D01*
D19*
X0030361Y0017620D03*
D20*
X0054249Y0093575D02*
X0057999Y0093575D01*
M02*
