%
M48
M72
T01C0.0130
T02C0.0138
T03C0.0197
T04C0.0394
T05C0.0400
T06C0.0440
T07C0.0886
%
T01
X5849Y2817
X7109Y1262
X6794Y947
X7837Y691
X8368Y1420
X8801Y2364
X8801Y3841
X8998Y5986
X7935Y6794
X6203Y8762
X5140Y9077
X4510Y10297
X2384Y10416
X5140Y14156
X5258Y14510
X12109Y9510
X13821Y7246
X14451Y6695
X13565Y6439
X14451Y7876
X14353Y12522
X14333Y13014
X14412Y14018
X14431Y14530
X12345Y13486
X15179Y1754
X10593Y1616
T02
X5790Y12679
X5790Y13664
T03
X2965Y6803
X4456Y6596
X3497Y4806
X3579Y3859
X4286Y2874
X5086Y3324
X3736Y1824
T04
X573Y593
X573Y14786
X16557Y14786
X16557Y593
T05
X14923Y2640
X14923Y3640
X14923Y4640
X14923Y5640
X15632Y7128
X15632Y8128
X15632Y9128
X15632Y10128
X15632Y11128
X15632Y12128
X15632Y13128
X15632Y14128
X3270Y13038
X3270Y11258
X710Y11258
X710Y13038
X1242Y8565
X1242Y7565
X1242Y6565
X1242Y5565
X1242Y4565
T06
X7830Y6009
X7830Y2009
T07
X12020Y5927
M30
