G75*
%MOIN*%
%OFA0B0*%
%FSLAX25Y25*%
%IPPOS*%
%LPD*%
%AMOC8*
5,1,8,0,0,1.08239X$1,22.5*
%
%ADD10C,0.00000*%
%ADD11C,0.04537*%
%ADD12R,0.04931X0.04537*%
%ADD13R,0.08474X0.04143*%
%ADD14R,0.04537X0.08474*%
%ADD15R,0.04143X0.08474*%
%ADD16R,0.20285X0.20285*%
%ADD17C,0.08000*%
%ADD18R,0.04537X0.04931*%
%ADD19C,0.07200*%
%ADD20R,0.02175X0.02175*%
%ADD21R,0.01387X0.02175*%
%ADD22R,0.02900X0.02300*%
%ADD23C,0.09458*%
%ADD24R,0.06506X0.04537*%
%ADD25R,0.01584X0.02569*%
%ADD26R,0.02569X0.01584*%
%ADD27R,0.03750X0.03750*%
%ADD28R,0.03750X0.04143*%
%ADD29R,0.03750X0.05915*%
%ADD30R,0.04143X0.03750*%
%ADD31R,0.05324X0.04537*%
%ADD32R,0.05324X0.02765*%
%ADD33C,0.01769*%
%ADD34C,0.03300*%
%ADD35C,0.03969*%
%ADD36C,0.03378*%
D10*
X0001006Y0001006D02*
X0001006Y0152778D01*
X0170298Y0152778D01*
X0170298Y0001006D01*
X0001006Y0001006D01*
X0003762Y0005928D02*
X0003764Y0006016D01*
X0003770Y0006104D01*
X0003780Y0006192D01*
X0003794Y0006280D01*
X0003811Y0006366D01*
X0003833Y0006452D01*
X0003858Y0006536D01*
X0003888Y0006620D01*
X0003920Y0006702D01*
X0003957Y0006782D01*
X0003997Y0006861D01*
X0004041Y0006938D01*
X0004088Y0007013D01*
X0004138Y0007085D01*
X0004192Y0007156D01*
X0004248Y0007223D01*
X0004308Y0007289D01*
X0004370Y0007351D01*
X0004436Y0007411D01*
X0004503Y0007467D01*
X0004574Y0007521D01*
X0004646Y0007571D01*
X0004721Y0007618D01*
X0004798Y0007662D01*
X0004877Y0007702D01*
X0004957Y0007739D01*
X0005039Y0007771D01*
X0005123Y0007801D01*
X0005207Y0007826D01*
X0005293Y0007848D01*
X0005379Y0007865D01*
X0005467Y0007879D01*
X0005555Y0007889D01*
X0005643Y0007895D01*
X0005731Y0007897D01*
X0005819Y0007895D01*
X0005907Y0007889D01*
X0005995Y0007879D01*
X0006083Y0007865D01*
X0006169Y0007848D01*
X0006255Y0007826D01*
X0006339Y0007801D01*
X0006423Y0007771D01*
X0006505Y0007739D01*
X0006585Y0007702D01*
X0006664Y0007662D01*
X0006741Y0007618D01*
X0006816Y0007571D01*
X0006888Y0007521D01*
X0006959Y0007467D01*
X0007026Y0007411D01*
X0007092Y0007351D01*
X0007154Y0007289D01*
X0007214Y0007223D01*
X0007270Y0007156D01*
X0007324Y0007085D01*
X0007374Y0007013D01*
X0007421Y0006938D01*
X0007465Y0006861D01*
X0007505Y0006782D01*
X0007542Y0006702D01*
X0007574Y0006620D01*
X0007604Y0006536D01*
X0007629Y0006452D01*
X0007651Y0006366D01*
X0007668Y0006280D01*
X0007682Y0006192D01*
X0007692Y0006104D01*
X0007698Y0006016D01*
X0007700Y0005928D01*
X0007698Y0005840D01*
X0007692Y0005752D01*
X0007682Y0005664D01*
X0007668Y0005576D01*
X0007651Y0005490D01*
X0007629Y0005404D01*
X0007604Y0005320D01*
X0007574Y0005236D01*
X0007542Y0005154D01*
X0007505Y0005074D01*
X0007465Y0004995D01*
X0007421Y0004918D01*
X0007374Y0004843D01*
X0007324Y0004771D01*
X0007270Y0004700D01*
X0007214Y0004633D01*
X0007154Y0004567D01*
X0007092Y0004505D01*
X0007026Y0004445D01*
X0006959Y0004389D01*
X0006888Y0004335D01*
X0006816Y0004285D01*
X0006741Y0004238D01*
X0006664Y0004194D01*
X0006585Y0004154D01*
X0006505Y0004117D01*
X0006423Y0004085D01*
X0006339Y0004055D01*
X0006255Y0004030D01*
X0006169Y0004008D01*
X0006083Y0003991D01*
X0005995Y0003977D01*
X0005907Y0003967D01*
X0005819Y0003961D01*
X0005731Y0003959D01*
X0005643Y0003961D01*
X0005555Y0003967D01*
X0005467Y0003977D01*
X0005379Y0003991D01*
X0005293Y0004008D01*
X0005207Y0004030D01*
X0005123Y0004055D01*
X0005039Y0004085D01*
X0004957Y0004117D01*
X0004877Y0004154D01*
X0004798Y0004194D01*
X0004721Y0004238D01*
X0004646Y0004285D01*
X0004574Y0004335D01*
X0004503Y0004389D01*
X0004436Y0004445D01*
X0004370Y0004505D01*
X0004308Y0004567D01*
X0004248Y0004633D01*
X0004192Y0004700D01*
X0004138Y0004771D01*
X0004088Y0004843D01*
X0004041Y0004918D01*
X0003997Y0004995D01*
X0003957Y0005074D01*
X0003920Y0005154D01*
X0003888Y0005236D01*
X0003858Y0005320D01*
X0003833Y0005404D01*
X0003811Y0005490D01*
X0003794Y0005576D01*
X0003780Y0005664D01*
X0003770Y0005752D01*
X0003764Y0005840D01*
X0003762Y0005928D01*
X0115769Y0059273D02*
X0115771Y0059405D01*
X0115777Y0059538D01*
X0115787Y0059670D01*
X0115801Y0059802D01*
X0115818Y0059933D01*
X0115840Y0060064D01*
X0115866Y0060194D01*
X0115895Y0060323D01*
X0115929Y0060451D01*
X0115966Y0060578D01*
X0116007Y0060704D01*
X0116051Y0060829D01*
X0116100Y0060953D01*
X0116152Y0061074D01*
X0116208Y0061195D01*
X0116267Y0061313D01*
X0116330Y0061430D01*
X0116396Y0061545D01*
X0116466Y0061657D01*
X0116539Y0061768D01*
X0116615Y0061876D01*
X0116694Y0061982D01*
X0116777Y0062086D01*
X0116863Y0062187D01*
X0116951Y0062285D01*
X0117043Y0062381D01*
X0117137Y0062474D01*
X0117234Y0062564D01*
X0117334Y0062652D01*
X0117437Y0062736D01*
X0117541Y0062817D01*
X0117649Y0062895D01*
X0117758Y0062969D01*
X0117870Y0063041D01*
X0117984Y0063109D01*
X0118099Y0063173D01*
X0118217Y0063234D01*
X0118336Y0063292D01*
X0118457Y0063346D01*
X0118580Y0063396D01*
X0118704Y0063442D01*
X0118829Y0063485D01*
X0118956Y0063524D01*
X0119084Y0063560D01*
X0119212Y0063591D01*
X0119342Y0063619D01*
X0119472Y0063642D01*
X0119603Y0063662D01*
X0119735Y0063678D01*
X0119867Y0063690D01*
X0119999Y0063698D01*
X0120132Y0063702D01*
X0120264Y0063702D01*
X0120397Y0063698D01*
X0120529Y0063690D01*
X0120661Y0063678D01*
X0120793Y0063662D01*
X0120924Y0063642D01*
X0121054Y0063619D01*
X0121184Y0063591D01*
X0121312Y0063560D01*
X0121440Y0063524D01*
X0121567Y0063485D01*
X0121692Y0063442D01*
X0121816Y0063396D01*
X0121939Y0063346D01*
X0122060Y0063292D01*
X0122179Y0063234D01*
X0122297Y0063173D01*
X0122413Y0063109D01*
X0122526Y0063041D01*
X0122638Y0062969D01*
X0122747Y0062895D01*
X0122855Y0062817D01*
X0122959Y0062736D01*
X0123062Y0062652D01*
X0123162Y0062564D01*
X0123259Y0062474D01*
X0123353Y0062381D01*
X0123445Y0062285D01*
X0123533Y0062187D01*
X0123619Y0062086D01*
X0123702Y0061982D01*
X0123781Y0061876D01*
X0123857Y0061768D01*
X0123930Y0061657D01*
X0124000Y0061545D01*
X0124066Y0061430D01*
X0124129Y0061313D01*
X0124188Y0061195D01*
X0124244Y0061074D01*
X0124296Y0060953D01*
X0124345Y0060829D01*
X0124389Y0060704D01*
X0124430Y0060578D01*
X0124467Y0060451D01*
X0124501Y0060323D01*
X0124530Y0060194D01*
X0124556Y0060064D01*
X0124578Y0059933D01*
X0124595Y0059802D01*
X0124609Y0059670D01*
X0124619Y0059538D01*
X0124625Y0059405D01*
X0124627Y0059273D01*
X0124625Y0059141D01*
X0124619Y0059008D01*
X0124609Y0058876D01*
X0124595Y0058744D01*
X0124578Y0058613D01*
X0124556Y0058482D01*
X0124530Y0058352D01*
X0124501Y0058223D01*
X0124467Y0058095D01*
X0124430Y0057968D01*
X0124389Y0057842D01*
X0124345Y0057717D01*
X0124296Y0057593D01*
X0124244Y0057472D01*
X0124188Y0057351D01*
X0124129Y0057233D01*
X0124066Y0057116D01*
X0124000Y0057001D01*
X0123930Y0056889D01*
X0123857Y0056778D01*
X0123781Y0056670D01*
X0123702Y0056564D01*
X0123619Y0056460D01*
X0123533Y0056359D01*
X0123445Y0056261D01*
X0123353Y0056165D01*
X0123259Y0056072D01*
X0123162Y0055982D01*
X0123062Y0055894D01*
X0122959Y0055810D01*
X0122855Y0055729D01*
X0122747Y0055651D01*
X0122638Y0055577D01*
X0122526Y0055505D01*
X0122412Y0055437D01*
X0122297Y0055373D01*
X0122179Y0055312D01*
X0122060Y0055254D01*
X0121939Y0055200D01*
X0121816Y0055150D01*
X0121692Y0055104D01*
X0121567Y0055061D01*
X0121440Y0055022D01*
X0121312Y0054986D01*
X0121184Y0054955D01*
X0121054Y0054927D01*
X0120924Y0054904D01*
X0120793Y0054884D01*
X0120661Y0054868D01*
X0120529Y0054856D01*
X0120397Y0054848D01*
X0120264Y0054844D01*
X0120132Y0054844D01*
X0119999Y0054848D01*
X0119867Y0054856D01*
X0119735Y0054868D01*
X0119603Y0054884D01*
X0119472Y0054904D01*
X0119342Y0054927D01*
X0119212Y0054955D01*
X0119084Y0054986D01*
X0118956Y0055022D01*
X0118829Y0055061D01*
X0118704Y0055104D01*
X0118580Y0055150D01*
X0118457Y0055200D01*
X0118336Y0055254D01*
X0118217Y0055312D01*
X0118099Y0055373D01*
X0117983Y0055437D01*
X0117870Y0055505D01*
X0117758Y0055577D01*
X0117649Y0055651D01*
X0117541Y0055729D01*
X0117437Y0055810D01*
X0117334Y0055894D01*
X0117234Y0055982D01*
X0117137Y0056072D01*
X0117043Y0056165D01*
X0116951Y0056261D01*
X0116863Y0056359D01*
X0116777Y0056460D01*
X0116694Y0056564D01*
X0116615Y0056670D01*
X0116539Y0056778D01*
X0116466Y0056889D01*
X0116396Y0057001D01*
X0116330Y0057116D01*
X0116267Y0057233D01*
X0116208Y0057351D01*
X0116152Y0057472D01*
X0116100Y0057593D01*
X0116051Y0057717D01*
X0116007Y0057842D01*
X0115966Y0057968D01*
X0115929Y0058095D01*
X0115895Y0058223D01*
X0115866Y0058352D01*
X0115840Y0058482D01*
X0115818Y0058613D01*
X0115801Y0058744D01*
X0115787Y0058876D01*
X0115777Y0059008D01*
X0115771Y0059141D01*
X0115769Y0059273D01*
X0163604Y0005928D02*
X0163606Y0006016D01*
X0163612Y0006104D01*
X0163622Y0006192D01*
X0163636Y0006280D01*
X0163653Y0006366D01*
X0163675Y0006452D01*
X0163700Y0006536D01*
X0163730Y0006620D01*
X0163762Y0006702D01*
X0163799Y0006782D01*
X0163839Y0006861D01*
X0163883Y0006938D01*
X0163930Y0007013D01*
X0163980Y0007085D01*
X0164034Y0007156D01*
X0164090Y0007223D01*
X0164150Y0007289D01*
X0164212Y0007351D01*
X0164278Y0007411D01*
X0164345Y0007467D01*
X0164416Y0007521D01*
X0164488Y0007571D01*
X0164563Y0007618D01*
X0164640Y0007662D01*
X0164719Y0007702D01*
X0164799Y0007739D01*
X0164881Y0007771D01*
X0164965Y0007801D01*
X0165049Y0007826D01*
X0165135Y0007848D01*
X0165221Y0007865D01*
X0165309Y0007879D01*
X0165397Y0007889D01*
X0165485Y0007895D01*
X0165573Y0007897D01*
X0165661Y0007895D01*
X0165749Y0007889D01*
X0165837Y0007879D01*
X0165925Y0007865D01*
X0166011Y0007848D01*
X0166097Y0007826D01*
X0166181Y0007801D01*
X0166265Y0007771D01*
X0166347Y0007739D01*
X0166427Y0007702D01*
X0166506Y0007662D01*
X0166583Y0007618D01*
X0166658Y0007571D01*
X0166730Y0007521D01*
X0166801Y0007467D01*
X0166868Y0007411D01*
X0166934Y0007351D01*
X0166996Y0007289D01*
X0167056Y0007223D01*
X0167112Y0007156D01*
X0167166Y0007085D01*
X0167216Y0007013D01*
X0167263Y0006938D01*
X0167307Y0006861D01*
X0167347Y0006782D01*
X0167384Y0006702D01*
X0167416Y0006620D01*
X0167446Y0006536D01*
X0167471Y0006452D01*
X0167493Y0006366D01*
X0167510Y0006280D01*
X0167524Y0006192D01*
X0167534Y0006104D01*
X0167540Y0006016D01*
X0167542Y0005928D01*
X0167540Y0005840D01*
X0167534Y0005752D01*
X0167524Y0005664D01*
X0167510Y0005576D01*
X0167493Y0005490D01*
X0167471Y0005404D01*
X0167446Y0005320D01*
X0167416Y0005236D01*
X0167384Y0005154D01*
X0167347Y0005074D01*
X0167307Y0004995D01*
X0167263Y0004918D01*
X0167216Y0004843D01*
X0167166Y0004771D01*
X0167112Y0004700D01*
X0167056Y0004633D01*
X0166996Y0004567D01*
X0166934Y0004505D01*
X0166868Y0004445D01*
X0166801Y0004389D01*
X0166730Y0004335D01*
X0166658Y0004285D01*
X0166583Y0004238D01*
X0166506Y0004194D01*
X0166427Y0004154D01*
X0166347Y0004117D01*
X0166265Y0004085D01*
X0166181Y0004055D01*
X0166097Y0004030D01*
X0166011Y0004008D01*
X0165925Y0003991D01*
X0165837Y0003977D01*
X0165749Y0003967D01*
X0165661Y0003961D01*
X0165573Y0003959D01*
X0165485Y0003961D01*
X0165397Y0003967D01*
X0165309Y0003977D01*
X0165221Y0003991D01*
X0165135Y0004008D01*
X0165049Y0004030D01*
X0164965Y0004055D01*
X0164881Y0004085D01*
X0164799Y0004117D01*
X0164719Y0004154D01*
X0164640Y0004194D01*
X0164563Y0004238D01*
X0164488Y0004285D01*
X0164416Y0004335D01*
X0164345Y0004389D01*
X0164278Y0004445D01*
X0164212Y0004505D01*
X0164150Y0004567D01*
X0164090Y0004633D01*
X0164034Y0004700D01*
X0163980Y0004771D01*
X0163930Y0004843D01*
X0163883Y0004918D01*
X0163839Y0004995D01*
X0163799Y0005074D01*
X0163762Y0005154D01*
X0163730Y0005236D01*
X0163700Y0005320D01*
X0163675Y0005404D01*
X0163653Y0005490D01*
X0163636Y0005576D01*
X0163622Y0005664D01*
X0163612Y0005752D01*
X0163606Y0005840D01*
X0163604Y0005928D01*
X0163604Y0147857D02*
X0163606Y0147945D01*
X0163612Y0148033D01*
X0163622Y0148121D01*
X0163636Y0148209D01*
X0163653Y0148295D01*
X0163675Y0148381D01*
X0163700Y0148465D01*
X0163730Y0148549D01*
X0163762Y0148631D01*
X0163799Y0148711D01*
X0163839Y0148790D01*
X0163883Y0148867D01*
X0163930Y0148942D01*
X0163980Y0149014D01*
X0164034Y0149085D01*
X0164090Y0149152D01*
X0164150Y0149218D01*
X0164212Y0149280D01*
X0164278Y0149340D01*
X0164345Y0149396D01*
X0164416Y0149450D01*
X0164488Y0149500D01*
X0164563Y0149547D01*
X0164640Y0149591D01*
X0164719Y0149631D01*
X0164799Y0149668D01*
X0164881Y0149700D01*
X0164965Y0149730D01*
X0165049Y0149755D01*
X0165135Y0149777D01*
X0165221Y0149794D01*
X0165309Y0149808D01*
X0165397Y0149818D01*
X0165485Y0149824D01*
X0165573Y0149826D01*
X0165661Y0149824D01*
X0165749Y0149818D01*
X0165837Y0149808D01*
X0165925Y0149794D01*
X0166011Y0149777D01*
X0166097Y0149755D01*
X0166181Y0149730D01*
X0166265Y0149700D01*
X0166347Y0149668D01*
X0166427Y0149631D01*
X0166506Y0149591D01*
X0166583Y0149547D01*
X0166658Y0149500D01*
X0166730Y0149450D01*
X0166801Y0149396D01*
X0166868Y0149340D01*
X0166934Y0149280D01*
X0166996Y0149218D01*
X0167056Y0149152D01*
X0167112Y0149085D01*
X0167166Y0149014D01*
X0167216Y0148942D01*
X0167263Y0148867D01*
X0167307Y0148790D01*
X0167347Y0148711D01*
X0167384Y0148631D01*
X0167416Y0148549D01*
X0167446Y0148465D01*
X0167471Y0148381D01*
X0167493Y0148295D01*
X0167510Y0148209D01*
X0167524Y0148121D01*
X0167534Y0148033D01*
X0167540Y0147945D01*
X0167542Y0147857D01*
X0167540Y0147769D01*
X0167534Y0147681D01*
X0167524Y0147593D01*
X0167510Y0147505D01*
X0167493Y0147419D01*
X0167471Y0147333D01*
X0167446Y0147249D01*
X0167416Y0147165D01*
X0167384Y0147083D01*
X0167347Y0147003D01*
X0167307Y0146924D01*
X0167263Y0146847D01*
X0167216Y0146772D01*
X0167166Y0146700D01*
X0167112Y0146629D01*
X0167056Y0146562D01*
X0166996Y0146496D01*
X0166934Y0146434D01*
X0166868Y0146374D01*
X0166801Y0146318D01*
X0166730Y0146264D01*
X0166658Y0146214D01*
X0166583Y0146167D01*
X0166506Y0146123D01*
X0166427Y0146083D01*
X0166347Y0146046D01*
X0166265Y0146014D01*
X0166181Y0145984D01*
X0166097Y0145959D01*
X0166011Y0145937D01*
X0165925Y0145920D01*
X0165837Y0145906D01*
X0165749Y0145896D01*
X0165661Y0145890D01*
X0165573Y0145888D01*
X0165485Y0145890D01*
X0165397Y0145896D01*
X0165309Y0145906D01*
X0165221Y0145920D01*
X0165135Y0145937D01*
X0165049Y0145959D01*
X0164965Y0145984D01*
X0164881Y0146014D01*
X0164799Y0146046D01*
X0164719Y0146083D01*
X0164640Y0146123D01*
X0164563Y0146167D01*
X0164488Y0146214D01*
X0164416Y0146264D01*
X0164345Y0146318D01*
X0164278Y0146374D01*
X0164212Y0146434D01*
X0164150Y0146496D01*
X0164090Y0146562D01*
X0164034Y0146629D01*
X0163980Y0146700D01*
X0163930Y0146772D01*
X0163883Y0146847D01*
X0163839Y0146924D01*
X0163799Y0147003D01*
X0163762Y0147083D01*
X0163730Y0147165D01*
X0163700Y0147249D01*
X0163675Y0147333D01*
X0163653Y0147419D01*
X0163636Y0147505D01*
X0163622Y0147593D01*
X0163612Y0147681D01*
X0163606Y0147769D01*
X0163604Y0147857D01*
X0003762Y0147857D02*
X0003764Y0147945D01*
X0003770Y0148033D01*
X0003780Y0148121D01*
X0003794Y0148209D01*
X0003811Y0148295D01*
X0003833Y0148381D01*
X0003858Y0148465D01*
X0003888Y0148549D01*
X0003920Y0148631D01*
X0003957Y0148711D01*
X0003997Y0148790D01*
X0004041Y0148867D01*
X0004088Y0148942D01*
X0004138Y0149014D01*
X0004192Y0149085D01*
X0004248Y0149152D01*
X0004308Y0149218D01*
X0004370Y0149280D01*
X0004436Y0149340D01*
X0004503Y0149396D01*
X0004574Y0149450D01*
X0004646Y0149500D01*
X0004721Y0149547D01*
X0004798Y0149591D01*
X0004877Y0149631D01*
X0004957Y0149668D01*
X0005039Y0149700D01*
X0005123Y0149730D01*
X0005207Y0149755D01*
X0005293Y0149777D01*
X0005379Y0149794D01*
X0005467Y0149808D01*
X0005555Y0149818D01*
X0005643Y0149824D01*
X0005731Y0149826D01*
X0005819Y0149824D01*
X0005907Y0149818D01*
X0005995Y0149808D01*
X0006083Y0149794D01*
X0006169Y0149777D01*
X0006255Y0149755D01*
X0006339Y0149730D01*
X0006423Y0149700D01*
X0006505Y0149668D01*
X0006585Y0149631D01*
X0006664Y0149591D01*
X0006741Y0149547D01*
X0006816Y0149500D01*
X0006888Y0149450D01*
X0006959Y0149396D01*
X0007026Y0149340D01*
X0007092Y0149280D01*
X0007154Y0149218D01*
X0007214Y0149152D01*
X0007270Y0149085D01*
X0007324Y0149014D01*
X0007374Y0148942D01*
X0007421Y0148867D01*
X0007465Y0148790D01*
X0007505Y0148711D01*
X0007542Y0148631D01*
X0007574Y0148549D01*
X0007604Y0148465D01*
X0007629Y0148381D01*
X0007651Y0148295D01*
X0007668Y0148209D01*
X0007682Y0148121D01*
X0007692Y0148033D01*
X0007698Y0147945D01*
X0007700Y0147857D01*
X0007698Y0147769D01*
X0007692Y0147681D01*
X0007682Y0147593D01*
X0007668Y0147505D01*
X0007651Y0147419D01*
X0007629Y0147333D01*
X0007604Y0147249D01*
X0007574Y0147165D01*
X0007542Y0147083D01*
X0007505Y0147003D01*
X0007465Y0146924D01*
X0007421Y0146847D01*
X0007374Y0146772D01*
X0007324Y0146700D01*
X0007270Y0146629D01*
X0007214Y0146562D01*
X0007154Y0146496D01*
X0007092Y0146434D01*
X0007026Y0146374D01*
X0006959Y0146318D01*
X0006888Y0146264D01*
X0006816Y0146214D01*
X0006741Y0146167D01*
X0006664Y0146123D01*
X0006585Y0146083D01*
X0006505Y0146046D01*
X0006423Y0146014D01*
X0006339Y0145984D01*
X0006255Y0145959D01*
X0006169Y0145937D01*
X0006083Y0145920D01*
X0005995Y0145906D01*
X0005907Y0145896D01*
X0005819Y0145890D01*
X0005731Y0145888D01*
X0005643Y0145890D01*
X0005555Y0145896D01*
X0005467Y0145906D01*
X0005379Y0145920D01*
X0005293Y0145937D01*
X0005207Y0145959D01*
X0005123Y0145984D01*
X0005039Y0146014D01*
X0004957Y0146046D01*
X0004877Y0146083D01*
X0004798Y0146123D01*
X0004721Y0146167D01*
X0004646Y0146214D01*
X0004574Y0146264D01*
X0004503Y0146318D01*
X0004436Y0146374D01*
X0004370Y0146434D01*
X0004308Y0146496D01*
X0004248Y0146562D01*
X0004192Y0146629D01*
X0004138Y0146700D01*
X0004088Y0146772D01*
X0004041Y0146847D01*
X0003997Y0146924D01*
X0003957Y0147003D01*
X0003920Y0147083D01*
X0003888Y0147165D01*
X0003858Y0147249D01*
X0003833Y0147333D01*
X0003811Y0147419D01*
X0003794Y0147505D01*
X0003780Y0147593D01*
X0003770Y0147681D01*
X0003764Y0147769D01*
X0003762Y0147857D01*
D11*
X0005731Y0147857D03*
X0005731Y0005928D03*
X0165573Y0005928D03*
X0165573Y0147857D03*
D12*
X0102750Y0054791D03*
X0096057Y0054791D03*
X0096083Y0046704D03*
X0102776Y0046704D03*
X0111920Y0046667D03*
X0118613Y0046667D03*
X0127420Y0046667D03*
X0134113Y0046667D03*
X0131101Y0035435D03*
X0124408Y0035435D03*
X0115050Y0035335D03*
X0108357Y0035335D03*
X0107606Y0025217D03*
X0100913Y0025217D03*
X0111957Y0016291D03*
X0118650Y0016291D03*
X0121713Y0025217D03*
X0115020Y0025217D03*
X0129526Y0025217D03*
X0136219Y0025217D03*
X0050770Y0110479D03*
X0044077Y0110479D03*
X0044105Y0118601D03*
X0050798Y0118601D03*
X0050719Y0127313D03*
X0044026Y0127313D03*
X0044246Y0135672D03*
X0050939Y0135672D03*
D13*
X0068380Y0135187D03*
X0068380Y0130187D03*
X0068380Y0125187D03*
X0068380Y0120187D03*
X0068380Y0115187D03*
X0068380Y0110187D03*
X0068380Y0105187D03*
X0068380Y0100187D03*
X0068380Y0095187D03*
X0068380Y0090187D03*
X0068380Y0085187D03*
X0068380Y0080187D03*
X0068380Y0140187D03*
X0068380Y0145187D03*
X0135309Y0145187D03*
X0135309Y0140187D03*
X0135309Y0135187D03*
X0135309Y0130187D03*
X0135309Y0125187D03*
X0135309Y0120187D03*
X0135309Y0115187D03*
X0135309Y0110187D03*
X0135309Y0105187D03*
X0135309Y0100187D03*
X0135309Y0095187D03*
X0135309Y0090187D03*
X0135309Y0085187D03*
X0135309Y0080187D03*
D14*
X0079345Y0076250D03*
D15*
X0084345Y0076250D03*
X0089345Y0076250D03*
X0094345Y0076250D03*
X0099345Y0076250D03*
X0104345Y0076250D03*
X0109345Y0076250D03*
X0114345Y0076250D03*
X0119345Y0076250D03*
X0124345Y0076250D03*
D16*
X0097908Y0115660D03*
D17*
X0149235Y0056400D03*
X0149235Y0046400D03*
X0149235Y0036400D03*
X0149235Y0026400D03*
X0156321Y0071282D03*
X0156321Y0081282D03*
X0156321Y0091282D03*
X0156321Y0101282D03*
X0156321Y0111282D03*
X0156321Y0121282D03*
X0156321Y0131282D03*
X0156321Y0141282D03*
X0032704Y0130379D03*
X0032704Y0112579D03*
X0007104Y0112579D03*
X0007104Y0130379D03*
X0012424Y0085652D03*
X0012424Y0075652D03*
X0012424Y0065652D03*
X0012424Y0055652D03*
X0012424Y0045652D03*
D18*
X0043132Y0090967D03*
X0043132Y0097660D03*
X0095503Y0038538D03*
X0095503Y0031845D03*
D19*
X0078303Y0020091D03*
X0078303Y0060091D03*
D20*
X0128941Y0016350D03*
X0128941Y0011232D03*
X0133665Y0011232D03*
X0133665Y0016350D03*
D21*
X0131303Y0016350D03*
X0131303Y0011232D03*
D22*
X0095453Y0011041D03*
X0095453Y0014741D03*
X0095453Y0018541D03*
X0086753Y0018541D03*
X0086753Y0011041D03*
D23*
X0120198Y0059273D03*
D24*
X0130139Y0059273D03*
X0110257Y0059273D03*
D25*
X0050798Y0051557D03*
X0048829Y0051557D03*
X0046861Y0051557D03*
X0044892Y0051557D03*
X0042924Y0051557D03*
X0042924Y0040928D03*
X0044892Y0040928D03*
X0046861Y0040928D03*
X0048829Y0040928D03*
X0050798Y0040928D03*
D26*
X0052176Y0044274D03*
X0052176Y0046243D03*
X0052176Y0048211D03*
X0041546Y0048211D03*
X0041546Y0046243D03*
X0041546Y0044274D03*
D27*
X0058361Y0038243D03*
X0058361Y0032243D03*
D28*
X0057361Y0018743D03*
X0057361Y0012743D03*
X0036361Y0024743D03*
X0036361Y0030743D03*
X0029361Y0034243D03*
X0029361Y0040243D03*
X0029254Y0048243D03*
X0029254Y0054243D03*
X0056361Y0073743D03*
X0056361Y0079743D03*
X0029861Y0087916D03*
X0029861Y0093916D03*
D29*
X0030361Y0021243D03*
X0030361Y0011243D03*
D30*
X0040861Y0012243D03*
X0046861Y0012243D03*
X0050361Y0061636D03*
X0056361Y0061636D03*
D31*
X0042904Y0061243D03*
X0035030Y0064983D03*
X0035030Y0057502D03*
X0050798Y0027483D03*
X0050798Y0020002D03*
X0042924Y0023743D03*
D32*
X0047979Y0073002D03*
X0047979Y0080483D03*
X0037742Y0080483D03*
X0037742Y0076743D03*
X0037742Y0073002D03*
D33*
X0054740Y0097756D02*
X0057508Y0097756D01*
X0057508Y0094988D01*
X0054740Y0094988D01*
X0054740Y0097756D01*
X0054740Y0096669D02*
X0057508Y0096669D01*
X0057508Y0104662D02*
X0054740Y0104662D01*
X0057508Y0104662D02*
X0057508Y0101894D01*
X0054740Y0101894D01*
X0054740Y0104662D01*
X0054740Y0103575D02*
X0057508Y0103575D01*
D34*
X0045101Y0102975D03*
X0051400Y0090770D03*
X0062030Y0087620D03*
X0079353Y0067935D03*
X0089983Y0059865D03*
X0088014Y0038408D03*
X0088014Y0023644D03*
X0083683Y0014195D03*
X0078369Y0006912D03*
X0071085Y0012620D03*
X0067935Y0009471D03*
X0058487Y0028172D03*
X0105928Y0016164D03*
X0135652Y0064392D03*
X0138211Y0072463D03*
X0144510Y0066951D03*
X0144510Y0078762D03*
X0121085Y0095101D03*
X0143526Y0125219D03*
X0143329Y0130140D03*
X0144117Y0140180D03*
X0144313Y0145298D03*
X0123447Y0134865D03*
X0052581Y0145101D03*
X0051400Y0141557D03*
X0023841Y0104156D03*
X0151794Y0017542D03*
D35*
X0050861Y0033243D03*
X0042861Y0028743D03*
X0035786Y0038593D03*
X0034967Y0048061D03*
X0044557Y0065955D03*
X0029648Y0068030D03*
X0037361Y0018243D03*
D36*
X0057896Y0126794D03*
X0057896Y0136636D03*
M02*
